<svg version="1.1" xmlns="http://www.w3.org/2000/svg" xmlns:xlink="http://www.w3.org/1999/xlink" width="213" height="227" viewBox="0,0,213,227"><defs><linearGradient x1="240" y1="136.577" x2="240" y2="223.42301" gradientUnits="userSpaceOnUse" id="color-1"><stop offset="0" stop-color="#234091" stop-opacity="0"/><stop offset="1" stop-color="#234091"/></linearGradient><linearGradient x1="165.3752" y1="180" x2="314.6248" y2="180" gradientUnits="userSpaceOnUse" id="color-2"><stop offset="0" stop-color="#5028a7"/><stop offset="1" stop-color="#5028a7" stop-opacity="0"/></linearGradient><linearGradient x1="188.2102" y1="218.5384" x2="222.96431" y2="183.78429" gradientUnits="userSpaceOnUse" id="color-3"><stop offset="0" stop-color="#5742ff"/><stop offset="1" stop-color="#5742ff" stop-opacity="0"/></linearGradient><linearGradient x1="289.99933" y1="151.54058" x2="268.84282" y2="172.6971" gradientUnits="userSpaceOnUse" id="color-4"><stop offset="0" stop-color="#0e8eab"/><stop offset="1" stop-color="#0e8eab" stop-opacity="0"/></linearGradient><linearGradient x1="291.94701" y1="219.2121" x2="285.69948" y2="205.52552" gradientUnits="userSpaceOnUse" id="color-5"><stop offset="0" stop-color="#0084ff"/><stop offset="1" stop-color="#0084ff" stop-opacity="0"/></linearGradient></defs><g transform="translate(-138.5,-39)"><g data-paper-data="{&quot;isPaintingLayer&quot;:true}" fill-rule="nonzero" stroke-linejoin="miter" stroke-miterlimit="10" stroke-dasharray="" stroke-dashoffset="0" style="mix-blend-mode: normal"><path d="M138.5,266v-227h213v227z" fill="none" stroke="#000000" stroke-width="0" stroke-linecap="butt"/><path d="M185.98084,214.75634c0,0 -24.75007,-8.57414 -20,-30c4.75008,-21.42587 16.13488,-32.67289 35.66667,-40.66667c28.37261,-11.61206 57.31945,-8.28449 78,0c20.68056,8.2845 31.56858,30.91975 34.66667,45.66667c3.09809,14.74693 -18,33.66667 -18,33.66667l-110.33333,-8.66667z" fill="#23928d" stroke="none" stroke-width="0" stroke-linecap="round"/><path d="M185.98085,214.75634c0,0 -24.75007,-8.57414 -20,-30c4.75008,-21.42587 16.13488,-32.67289 35.66667,-40.66667c28.37261,-11.61206 57.31945,-8.28449 78,0c20.68056,8.2845 31.56858,30.91975 34.66667,45.66667c3.09809,14.74693 -18,33.66667 -18,33.66667l-110.33333,-8.66667z" fill="url(#color-1)" stroke="none" stroke-width="0" stroke-linecap="round"/><path d="M185.98085,214.75634c0,0 -24.75007,-8.57414 -20,-30c4.75008,-21.42587 16.13488,-32.67289 35.66667,-40.66667c28.37261,-11.61206 57.31945,-8.28449 78,0c20.68056,8.2845 31.56858,30.91975 34.66667,45.66667c3.09809,14.74693 -18,33.66667 -18,33.66667l-110.33333,-8.66667z" fill="url(#color-2)" stroke="none" stroke-width="0" stroke-linecap="round"/><path d="M201.01828,216.54958c0,0 -19.96197,-3.22671 -27.0448,-12.43439c-7.08283,-9.20768 -6.02472,-15.47871 -2.37418,-24.51285c5.33353,-13.1991 21.7151,-24.22453 21.7151,-24.22453c0,0 6.4928,25.79225 14.23194,36.9247c7.73914,11.13245 33.57286,27.35567 33.57286,27.35567z" fill="url(#color-3)" stroke="none" stroke-width="0" stroke-linecap="round"/><path d="M264.22969,143.00013c9.50464,1.0897 13.27097,1.89326 20.75905,5.7664c7.48807,3.87314 8.32907,6.37877 12.68608,11.5328c4.35702,5.15403 8.29218,9.19369 10.95616,16.43425c2.66398,7.24056 3.17152,17.01089 3.17152,17.01089c0,0 -13.8482,-21.63385 -23.93057,-30.85025c-10.08237,-9.2164 -15.0372,-10.61493 -25.94881,-14.99265c-10.91161,-4.37771 -22.20065,-4.3248 -22.20065,-4.3248c0,0 15.00257,-1.66634 24.50721,-0.57664z" fill="url(#color-4)" stroke="none" stroke-width="0" stroke-linecap="round"/><path d="M295.19183,217.70445c-11.21795,5.84408 -31.39633,0.71515 -31.39633,0.71515l47.20832,-23.1036c0,0 -4.59404,16.54437 -15.81199,22.38845z" fill="url(#color-5)" stroke="none" stroke-width="0" stroke-linecap="round"/></g></g></svg>