<svg version="1.1" xmlns="http://www.w3.org/2000/svg" xmlns:xlink="http://www.w3.org/1999/xlink" width="213" height="227" viewBox="0,0,213,227"><defs><linearGradient x1="213.1889" y1="83.11563" x2="213.1889" y2="111.75557" gradientUnits="userSpaceOnUse" id="color-1"><stop offset="0" stop-color="#ffd26a" stop-opacity="0"/><stop offset="1" stop-color="#ffd26a"/></linearGradient><linearGradient x1="222.07778" y1="80.53335" x2="222.07778" y2="111.17329" gradientUnits="userSpaceOnUse" id="color-2"><stop offset="0" stop-color="#de9a1d" stop-opacity="0"/><stop offset="1" stop-color="#de9a1d"/></linearGradient><linearGradient x1="251.46667" y1="106.31113" x2="268.68889" y2="106.31113" gradientUnits="userSpaceOnUse" id="color-3"><stop offset="0" stop-color="#ffc72d" stop-opacity="0"/><stop offset="1" stop-color="#ffc72d"/></linearGradient><linearGradient x1="224.82007" y1="110.61301" x2="224.82007" y2="121.4717" gradientUnits="userSpaceOnUse" id="color-4"><stop offset="0" stop-color="#ffea7d" stop-opacity="0"/><stop offset="1" stop-color="#ffea7d"/></linearGradient><linearGradient x1="238.32223" y1="120.20782" x2="238.32223" y2="124.85392" gradientUnits="userSpaceOnUse" id="color-5"><stop offset="0" stop-color="#000e42"/><stop offset="1" stop-color="#1c2267"/></linearGradient><linearGradient x1="240.00001" y1="153.04723" x2="240.00001" y2="206.95281" gradientUnits="userSpaceOnUse" id="color-6"><stop offset="0" stop-color="#00a042" stop-opacity="0"/><stop offset="1" stop-color="#00a042"/></linearGradient><linearGradient x1="191.95318" y1="180" x2="288.04682" y2="180" gradientUnits="userSpaceOnUse" id="color-7"><stop offset="0" stop-color="#28a694"/><stop offset="1" stop-color="#28a694" stop-opacity="0"/></linearGradient><linearGradient x1="274.10826" y1="161.34679" x2="261.79727" y2="175.33752" gradientUnits="userSpaceOnUse" id="color-8"><stop offset="0" stop-color="#b5ff69"/><stop offset="1" stop-color="#b5ff69" stop-opacity="0"/></linearGradient><linearGradient x1="206.14689" y1="206.06059" x2="228.27664" y2="182.05346" gradientUnits="userSpaceOnUse" id="color-9"><stop offset="0" stop-color="#43ff42"/><stop offset="1" stop-color="#43ff42" stop-opacity="0"/></linearGradient><linearGradient x1="231.51282" y1="179.46752" x2="226.38147" y2="184.59887" gradientUnits="userSpaceOnUse" id="color-10"><stop offset="0" stop-color="#459cff" stop-opacity="0"/><stop offset="1" stop-color="#459cff"/></linearGradient><linearGradient x1="279.49773" y1="176.70806" x2="274.36638" y2="181.83941" gradientUnits="userSpaceOnUse" id="color-11"><stop offset="0" stop-color="#459cff" stop-opacity="0"/><stop offset="1" stop-color="#459cff"/></linearGradient><linearGradient x1="232.06489" y1="179.9987" x2="233.31552" y2="178.74807" gradientUnits="userSpaceOnUse" id="color-12"><stop offset="0" stop-color="#f5ff76" stop-opacity="0"/><stop offset="1" stop-color="#f5ff76"/></linearGradient><linearGradient x1="280.47467" y1="177.2072" x2="281.7253" y2="175.95657" gradientUnits="userSpaceOnUse" id="color-13"><stop offset="0" stop-color="#f5ff76" stop-opacity="0"/><stop offset="1" stop-color="#f5ff76"/></linearGradient><linearGradient x1="213.24445" y1="115.42222" x2="213.24445" y2="128.97778" gradientUnits="userSpaceOnUse" id="color-14"><stop offset="0" stop-color="#ffd26a" stop-opacity="0"/><stop offset="1" stop-color="#ffd26a"/></linearGradient><linearGradient x1="222.13334" y1="114.20001" x2="222.13334" y2="127.75557" gradientUnits="userSpaceOnUse" id="color-15"><stop offset="0" stop-color="#de9a1d" stop-opacity="0"/><stop offset="1" stop-color="#de9a1d"/></linearGradient><linearGradient x1="251.52222" y1="123.53335" x2="268.74445" y2="123.53335" gradientUnits="userSpaceOnUse" id="color-16"><stop offset="0" stop-color="#ffc72d" stop-opacity="0"/><stop offset="1" stop-color="#ffc72d"/></linearGradient><linearGradient x1="238.98889" y1="126.17779" x2="238.98889" y2="131.97778" gradientUnits="userSpaceOnUse" id="color-17"><stop offset="0" stop-color="#a55200"/><stop offset="1" stop-color="#b86e00"/></linearGradient><linearGradient x1="249.56954" y1="62.04804" x2="249.56954" y2="91.60693" gradientUnits="userSpaceOnUse" id="color-18"><stop offset="0" stop-color="#ffc72d"/><stop offset="1" stop-color="#ffc72d" stop-opacity="0"/></linearGradient></defs><g transform="translate(-138.5,-39)"><g data-paper-data="{&quot;isPaintingLayer&quot;:true}" fill-rule="nonzero" stroke-linejoin="miter" stroke-miterlimit="10" stroke-dasharray="" stroke-dashoffset="0" style="mix-blend-mode: normal"><path d="M138.5,266v-227h213v227z" fill="none" stroke="#000000" stroke-width="0" stroke-linecap="butt"/><path d="M209.33334,111.95557v-37.97778l10.68889,15.66667l19.77778,-28l19.33333,27.66667l9.4,-15.33334v37.97778z" fill="#b86e00" stroke="none" stroke-width="0" stroke-linecap="butt"/><path d="M209.46667,111.75557v-28.63994h7.44445v28.63994z" fill="url(#color-1)" stroke="none" stroke-width="0" stroke-linecap="butt"/><path d="M213.46667,111.17329v-30.63994h17.22222v30.63994z" fill="url(#color-2)" stroke="none" stroke-width="0" stroke-linecap="butt"/><path d="M251.46667,113.08891l-11.75709,-51.69554l19.31264,28.02886l9.55556,-15.33333l-0.11111,37.55556z" fill="url(#color-3)" stroke="none" stroke-width="0" stroke-linecap="butt"/><path d="M268.53334,111.85557c0,1.60162 -13.25237,2.9 -29.6,2.9c-16.34763,0 -29.6,-1.29838 -29.6,-2.9c0,-1.60162 13.25237,-2.9 29.6,-2.9c16.34763,0 29.6,1.29837 29.6,2.9z" fill="#a55200" stroke="none" stroke-width="0" stroke-linecap="butt"/><path d="M262.03334,112.75805c0,1.28298 -10.61583,2.32305 -23.71111,2.32305c-13.09528,0 -23.71112,-1.04006 -23.71112,-2.32305c0,-1.28298 10.61583,-2.32305 23.71112,-2.32305c13.09528,0 23.71111,1.04007 23.71111,2.32305z" fill="#b26100" stroke="none" stroke-width="0" stroke-linecap="butt"/><path d="M214.61111,122.61098v-9.77282h47.42223v9.77282z" fill="#b26100" stroke="none" stroke-width="0" stroke-linecap="butt"/><path d="M217.92212,121.4717v-10.85869h13.79588v10.85869z" fill="url(#color-4)" stroke="none" stroke-width="0" stroke-linecap="butt"/><path d="M262.03334,122.53087c0,1.28298 -10.61583,2.32304 -23.71111,2.32304c-13.09528,0 -23.71112,-1.04006 -23.71112,-2.32304c0,-1.28298 10.61583,-2.32305 23.71112,-2.32305c13.09528,0 23.71111,1.04007 23.71111,2.32305z" fill="url(#color-5)" stroke="none" stroke-width="0" stroke-linecap="butt"/><path d="M227.81438,205.98294c-22.10846,-1.79744 -26.49211,-2.13822 -31.73962,-10.57987c-5.24751,-8.44165 -5.73788,-17.3274 0,-25.96878c5.73788,-8.64138 14.89959,-11.76442 26.60999,-14.1065c11.7104,-2.34208 25.45407,-3.92179 40.71649,0.6412c15.26242,4.56299 16.18159,8.06797 21.48035,17.95373c5.29876,9.88575 2.98632,13.7406 0,22.12156c-2.98632,8.38095 -11.68357,9.26724 -16.67132,9.93867c-4.98775,0.67143 -18.28742,1.79744 -40.39588,0z" fill="#56ff42" stroke="none" stroke-width="0" stroke-linecap="round"/><path d="M227.81438,205.98294c-22.10846,-1.79744 -26.49211,-2.13822 -31.73962,-10.57987c-5.24751,-8.44165 -5.73788,-17.3274 0,-25.96878c5.73788,-8.64138 14.89959,-11.76442 26.60999,-14.1065c11.7104,-2.34208 25.45407,-3.92179 40.71649,0.6412c15.26242,4.56299 16.18159,8.06797 21.48035,17.95373c5.29876,9.88575 2.98632,13.7406 0,22.12156c-2.98632,8.38095 -11.68357,9.26724 -16.67132,9.93867c-4.98775,0.67143 -18.28742,1.79744 -40.39588,0z" fill="url(#color-6)" stroke="none" stroke-width="0" stroke-linecap="round"/><path d="M227.81437,205.98292c-22.10846,-1.79744 -26.49211,-2.13822 -31.73962,-10.57987c-5.24751,-8.44165 -5.73788,-17.3274 0,-25.96878c5.73788,-8.64138 14.89959,-11.76442 26.60999,-14.1065c11.7104,-2.34208 25.45407,-3.92179 40.71649,0.6412c15.26242,4.56299 16.18159,8.06797 21.48035,17.95373c5.29876,9.88575 2.98632,13.7406 0,22.12156c-2.98632,8.38095 -11.68357,9.26724 -16.67132,9.93867c-4.98775,0.67143 -18.28742,1.79744 -40.39588,0z" fill="url(#color-7)" stroke="none" stroke-width="0" stroke-linecap="round"/><path d="M259.11289,155.69903c5.53076,0.72061 7.72239,1.25201 12.07971,3.8133c4.35731,2.56129 4.84669,4.21826 7.38204,7.62659c2.53535,3.40834 4.82523,6.07975 6.3754,10.8679c1.55017,4.78815 1.84551,11.24923 1.84551,11.24923c0,0 -8.05828,-14.30638 -13.92521,-20.40115c-5.86694,-6.09477 -8.75016,-7.01961 -15.09963,-9.91458c-6.34947,-2.89496 -12.91857,-2.85997 -12.91857,-2.85997c0,0 8.73001,-1.10194 14.26076,-0.38133z" fill="url(#color-8)" stroke="none" stroke-width="0" stroke-linecap="round"/><path d="M214.30246,204.68678c0,0 -12.71083,-2.22892 -17.22083,-8.58932c-4.51001,-6.3604 -3.83625,-10.69225 -1.51176,-16.93277c3.39614,-9.11756 13.82713,-16.73361 13.82713,-16.73361c0,0 4.1343,17.81654 9.06222,25.50652c4.92791,7.68998 21.37759,18.89651 21.37759,18.89651z" fill="url(#color-9)" stroke="none" stroke-width="0" stroke-linecap="round"/><path d="M277.83585,184.40362c-2.95623,0 -5.35273,-2.3965 -5.35273,-5.35273c0,-2.95623 2.3965,-5.35273 5.35273,-5.35273c2.95623,0 5.35273,2.3965 5.35273,5.35273c0,2.95623 -2.3965,5.35273 -5.35273,5.35273z" data-paper-data="{&quot;index&quot;:null}" fill="#000000" stroke="none" stroke-width="0.5" stroke-linecap="butt"/><path d="M229.73594,186.94307c-2.95623,0 -5.35273,-2.3965 -5.35273,-5.35273c0,-2.95623 2.3965,-5.35273 5.35273,-5.35273c2.95623,0 5.35273,2.39649 5.35273,5.35273c0,2.95623 -2.3965,5.35273 -5.35273,5.35273z" data-paper-data="{&quot;index&quot;:null}" fill="#000000" stroke="none" stroke-width="0.5" stroke-linecap="butt"/><path d="M258.26725,180.7104c0,0 -0.89071,2.72173 -3.52068,2.73085c-2.87232,0.00995 -4.24701,-2.60948 -4.24701,-2.60948" data-paper-data="{&quot;index&quot;:null}" fill="none" stroke="#000000" stroke-width="3.5" stroke-linecap="round"/><path d="M226.38147,184.59887c-1.41699,-1.41699 -1.41698,-3.71436 0,-5.13134c1.41699,-1.41699 3.71435,-1.41699 5.13134,0c1.41699,1.41699 1.41699,3.71436 0.00001,5.13134c-1.41699,1.41699 -3.71436,1.41699 -5.13135,0z" data-paper-data="{&quot;index&quot;:null}" fill="url(#color-10)" stroke="none" stroke-width="0.5" stroke-linecap="butt"/><path d="M274.36638,181.83941c-1.41699,-1.41699 -1.41698,-3.71436 0,-5.13135c1.41699,-1.41699 3.71436,-1.41699 5.13134,0c1.41699,1.41699 1.41699,3.71436 0,5.13135c-1.41699,1.41699 -3.71436,1.41699 -5.13135,0z" data-paper-data="{&quot;index&quot;:null}" fill="url(#color-11)" stroke="none" stroke-width="0.5" stroke-linecap="butt"/><path d="M233.31552,178.74807c0.34535,0.34535 0.34535,0.90528 0,1.25063c-0.34535,0.34535 -0.90528,0.34535 -1.25063,0c-0.34535,-0.34535 -0.34535,-0.90528 0,-1.25063c0.34535,-0.34535 0.90528,-0.34535 1.25063,0z" data-paper-data="{&quot;index&quot;:null}" fill="url(#color-12)" stroke="none" stroke-width="0.5" stroke-linecap="butt"/><path d="M281.7253,175.95657c0.34535,0.34535 0.34535,0.90528 0,1.25063c-0.34535,0.34535 -0.90528,0.34535 -1.25063,0c-0.34535,-0.34535 -0.34535,-0.90528 0,-1.25063c0.34535,-0.34535 0.90528,-0.34535 1.25063,0z" data-paper-data="{&quot;index&quot;:null}" fill="url(#color-13)" stroke="none" stroke-width="0.5" stroke-linecap="butt"/><path d="M268.58889,116.87779c0,1.60162 -13.25237,2.9 -29.6,2.9c-16.34763,0 -29.6,-1.29838 -29.6,-2.9c0,-1.60162 13.25237,-2.9 29.6,-2.9c16.34763,0 29.6,1.29838 29.6,2.9z" fill="#b86e00" stroke="none" stroke-width="0" stroke-linecap="butt"/><path d="M209.38889,129.17779v-12.2h59.2v12.2z" fill="#b86e00" stroke="none" stroke-width="0" stroke-linecap="butt"/><path d="M209.52222,128.97778v-13.55556h7.44445v13.55556z" fill="url(#color-14)" stroke="none" stroke-width="0" stroke-linecap="butt"/><path d="M213.52222,127.75557v-13.55556h17.22223v13.55556z" fill="url(#color-15)" stroke="none" stroke-width="0" stroke-linecap="butt"/><path d="M251.52222,130.31113c0,0 -8.6177,-16.01529 -2.22222,-16.00001c18.58107,0.04443 19.44444,2.44445 19.44444,2.44445l-0.22222,12.11111z" fill="url(#color-16)" stroke="none" stroke-width="0" stroke-linecap="butt"/><path d="M268.58889,129.07779c0,1.60163 -13.25237,2.9 -29.6,2.9c-16.34763,0 -29.6,-1.29837 -29.6,-2.9c0,-1.60162 13.25237,-2.9 29.6,-2.9c16.34763,0 29.6,1.29837 29.6,2.9z" fill="url(#color-17)" stroke="none" stroke-width="0" stroke-linecap="butt"/><path d="M239.98727,62.04804l19.3811,27.71823l-1.19102,1.84066l-18.40664,-27.3934z" fill="url(#color-18)" stroke="none" stroke-width="0" stroke-linecap="round"/></g></g></svg>