<?xml version="1.0" standalone="no"?>
<!DOCTYPE svg PUBLIC "-//W3C//DTD SVG 20010904//EN"
 "http://www.w3.org/TR/2001/REC-SVG-20010904/DTD/svg10.dtd">
<svg version="1.0" xmlns="http://www.w3.org/2000/svg"
 width="612.000000pt" height="360.000000pt" viewBox="0 0 612.000000 360.000000"
 preserveAspectRatio="xMidYMid meet">

<g transform="translate(0.000000,360.000000) scale(0.100000,-0.100000)"
fill="#000022" stroke="none">
<path d="M730 2406 c0 -9 -4 -16 -10 -16 -5 0 -10 -9 -10 -20 0 -11 5 -20 11
-20 7 0 17 -7 24 -16 11 -15 14 -15 38 1 34 22 34 35 3 35 -18 0 -26 6 -28 22
-4 25 -28 37 -28 14z"/>
<path d="M552 2283 c9 -10 32 -49 52 -88 22 -42 33 -58 30 -40 -13 59 -64 145
-87 145 -6 0 -3 -8 5 -17z"/>
<path d="M270 2256 c0 -9 5 -16 10 -16 6 0 10 4 10 9 0 6 -4 13 -10 16 -5 3
-10 -1 -10 -9z"/>
<path d="M305 2210 c4 -6 11 -8 16 -5 14 9 11 15 -7 15 -8 0 -12 -5 -9 -10z"/>
<path d="M676 2185 c4 -20 12 -60 19 -89 13 -51 13 -51 14 -13 1 45 -17 125
-31 133 -6 4 -7 -9 -2 -31z"/>
<path d="M250 2200 c0 -5 5 -10 11 -10 5 0 7 5 4 10 -3 6 -8 10 -11 10 -2 0
-4 -4 -4 -10z"/>
<path d="M554 2099 c20 -22 42 -51 48 -65 11 -23 28 -33 28 -16 0 16 -62 102
-80 112 -34 18 -33 10 4 -31z"/>
<path d="M450 2115 c0 -8 -9 -15 -20 -15 -23 0 -26 -13 -6 -29 11 -9 19 -9 35
1 23 14 24 18 15 42 -8 20 -24 21 -24 1z"/>
<path d="M200 2096 c0 -9 5 -16 10 -16 6 0 10 4 10 9 0 6 -4 13 -10 16 -5 3
-10 -1 -10 -9z"/>
<path d="M846 2064 c-17 -58 -3 -139 19 -103 6 8 4 10 -5 4 -10 -6 -11 -4 -5
11 14 34 17 72 7 90 -9 16 -10 16 -16 -2z"/>
<path d="M1404 2053 c-11 -53 -12 -53 -39 -43 -63 24 -74 -1 -22 -49 36 -35
57 -39 57 -13 0 26 11 34 26 21 7 -6 18 -8 24 -4 13 8 13 45 -1 45 -5 0 -7 5
-4 11 11 16 -4 59 -20 59 -8 0 -17 -12 -21 -27z"/>
<path d="M235 2060 c-3 -5 -1 -10 4 -10 6 0 11 5 11 10 0 6 -2 10 -4 10 -3 0
-8 -4 -11 -10z"/>
<path d="M531 2062 c2 -5 30 -38 62 -73 61 -67 68 -54 10 19 -32 39 -80 76
-72 54z"/>
<path d="M180 2040 c0 -5 5 -10 11 -10 5 0 7 5 4 10 -3 6 -8 10 -11 10 -2 0
-4 -4 -4 -10z"/>
<path d="M1135 2015 c5 -11 20 -54 34 -95 16 -48 27 -67 29 -54 4 28 -33 134
-54 154 -15 14 -16 13 -9 -5z"/>
<path d="M665 1993 c7 -19 38 -119 57 -186 16 -55 19 -40 6 34 -11 63 -51 169
-64 169 -3 0 -3 -8 1 -17z"/>
<path d="M920 1955 c0 -15 4 -24 10 -20 6 3 10 12 10 20 0 8 -4 17 -10 20 -6
4 -10 -5 -10 -20z"/>
<path d="M1545 1955 c-3 -14 -7 -36 -10 -49 -3 -14 1 -29 10 -36 8 -7 15 -11
16 -9 0 2 3 27 6 55 5 54 -12 85 -22 39z"/>
<path d="M1632 1935 c0 -16 2 -22 5 -12 2 9 2 23 0 30 -3 6 -5 -1 -5 -18z"/>
<path d="M2050 1934 c0 -8 5 -12 10 -9 6 3 10 10 10 16 0 5 -4 9 -10 9 -5 0
-10 -7 -10 -16z"/>
<path d="M1243 1894 c4 -21 7 -64 8 -94 0 -47 2 -51 10 -30 12 30 2 147 -13
156 -8 5 -9 -5 -5 -32z"/>
<path d="M2015 1900 c3 -5 8 -10 11 -10 2 0 4 5 4 10 0 6 -5 10 -11 10 -5 0
-7 -4 -4 -10z"/>
<path d="M880 1881 c0 -11 5 -23 10 -26 6 -4 10 5 10 19 0 14 -4 26 -10 26 -5
0 -10 -9 -10 -19z"/>
<path d="M631 1874 c0 -11 3 -14 6 -6 3 7 2 16 -1 19 -3 4 -6 -2 -5 -13z"/>
<path d="M2070 1879 c0 -5 5 -7 10 -4 6 3 10 8 10 11 0 2 -4 4 -10 4 -5 0 -10
-5 -10 -11z"/>
<path d="M1660 1854 c0 -14 4 -23 10 -19 6 3 10 15 10 26 0 10 -4 19 -10 19
-5 0 -10 -12 -10 -26z"/>
<path d="M358 1863 c7 -3 16 -2 19 1 4 3 -2 6 -13 5 -11 0 -14 -3 -6 -6z"/>
<path d="M1103 1838 c28 -37 51 -81 62 -118 6 -18 -1 -13 -26 19 -19 25 -41
47 -49 49 -9 3 -4 -9 13 -31 15 -21 24 -37 20 -37 -4 0 -3 -4 2 -8 6 -4 16
-18 24 -31 12 -21 11 -26 -3 -36 -18 -14 -22 -30 -4 -19 7 4 8 3 4 -4 -14 -23
-26 -11 -27 26 -1 33 -2 34 -9 12 -7 -22 -8 -23 -9 -4 -1 12 -8 27 -16 34 -9
7 -14 19 -11 27 3 8 1 11 -4 8 -14 -9 -12 -24 5 -41 9 -9 15 -33 15 -57 l-1
-42 -19 24 c-13 15 -18 31 -14 46 3 13 1 26 -5 29 -6 4 -11 23 -11 42 0 19 -4
34 -8 34 -4 0 -6 -16 -4 -36 3 -27 1 -35 -8 -29 -8 5 -10 2 -7 -11 19 -62 18
-69 -9 -93 -21 -18 -26 -19 -21 -6 4 9 4 22 0 28 -15 24 -13 50 8 78 18 26 19
33 9 65 -7 19 -14 34 -16 31 -2 -2 1 -18 7 -35 9 -25 8 -35 -6 -54 -16 -23
-17 -22 -13 19 2 28 0 39 -6 33 -6 -6 -9 -29 -7 -52 2 -37 1 -40 -13 -29 -14
12 -14 10 0 -18 18 -36 11 -92 -8 -73 -8 8 -8 16 2 27 12 14 11 18 -1 26 -8 5
-17 9 -21 9 -16 0 -7 48 12 65 11 10 18 21 15 23 -3 3 -12 -3 -20 -14 -13 -17
-14 -15 -15 30 0 63 -10 55 -12 -10 l-1 -49 -12 40 -12 40 -4 -47 c-2 -25 -1
-44 2 -42 3 2 6 -17 7 -41 0 -25 -4 -45 -10 -45 -6 0 -8 9 -5 20 3 11 2 20 -3
20 -4 0 -8 6 -7 13 1 34 -4 57 -13 57 -5 0 -7 -13 -4 -29 3 -16 1 -37 -5 -48
-8 -13 -11 -14 -10 -3 1 8 0 26 -1 40 -2 17 -5 10 -10 -20 l-7 -45 -2 55 c-2
30 -6 80 -11 110 -7 52 -7 53 -9 15 -1 -22 -6 -49 -11 -60 -8 -21 -12 -17 -24
30 -3 11 -4 4 -2 -15 2 -19 6 -41 8 -49 4 -17 -13 -23 -31 -12 -12 8 -12 12
-2 25 20 24 6 48 -24 40 -17 -4 -25 -2 -25 7 0 12 -2 12 -9 1 -6 -11 -12 -10
-25 4 -14 13 -17 28 -12 63 3 28 2 36 -3 21 -6 -22 -13 -25 -48 -25 -33 1 -40
-2 -31 -12 6 -7 7 -13 2 -13 -5 0 -3 -4 4 -9 7 -4 15 -17 17 -27 2 -10 4 -19
5 -19 1 0 3 -10 4 -23 3 -25 -16 -25 -20 0 -1 9 -6 24 -12 34 -9 16 -10 15
-16 -4 -10 -32 -22 -27 -56 20 -16 22 -30 35 -30 27 -1 -8 -8 -2 -16 14 -8 15
-17 27 -20 27 -2 0 0 -9 6 -20 11 -21 6 -40 -10 -40 -5 0 -11 8 -13 18 -2 9
-3 7 -2 -5 1 -14 -3 -23 -11 -23 -8 0 -20 -15 -28 -32 -14 -32 -14 -32 -11 32
2 47 1 54 -4 25 l-7 -40 -18 40 c-11 22 -18 47 -17 55 1 11 -1 11 -9 -2 -8
-13 -7 -24 6 -43 20 -30 13 -43 -10 -20 -15 15 -16 15 -16 -2 -1 -15 -4 -13
-16 7 -8 14 -13 17 -10 8 3 -10 1 -17 -3 -15 -5 1 -9 -2 -10 -8 -1 -5 5 -10
11 -10 7 0 14 -12 15 -28 1 -16 -2 -25 -8 -21 -5 3 -7 15 -3 27 6 22 6 22 -11
2 -13 -16 -15 -16 -11 -3 3 9 0 19 -7 21 -9 3 -8 8 2 20 8 10 9 17 3 17 -6 0
-14 9 -17 20 -3 11 -11 20 -16 20 -6 0 -6 -7 1 -19 5 -11 10 -30 10 -43 -1
-18 -6 -14 -25 22 -16 31 -23 38 -22 23 1 -13 4 -23 7 -23 4 0 14 -16 24 -37
13 -27 14 -38 5 -43 -8 -6 -5 -11 10 -19 29 -16 27 -41 -3 -41 -22 0 -26 7
-40 73 -8 39 -17 81 -20 92 -2 11 -4 -7 -4 -40 0 -33 -5 -71 -10 -85 -9 -21
-11 -14 -13 45 l-2 70 -7 -60 -6 -60 -8 63 c-5 34 -13 62 -18 62 -6 0 -7 -12
-3 -27 4 -19 3 -25 -3 -18 -6 6 -12 21 -15 35 -2 14 -2 -16 1 -67 4 -85 3 -93
-17 -105 l-21 -13 0 -802 0 -803 3060 0 3060 0 -1 168 c-1 92 -5 178 -9 192
l-8 25 -1 -24 c-1 -13 -4 -21 -8 -18 -3 4 -12 2 -20 -4 -10 -9 -13 -7 -13 11
0 19 -2 20 -15 10 -13 -11 -19 -7 -17 12 1 3 -5 11 -13 18 -12 10 -13 8 -10
-9 2 -14 -1 -21 -11 -21 -8 0 -13 4 -10 9 5 8 -16 23 -36 25 -3 1 -10 4 -14 8
-15 16 -34 7 -34 -14 -1 -21 -2 -21 -11 -5 -11 19 -34 23 -45 5 -4 -7 -3 -8 4
-4 7 4 12 3 12 -3 0 -5 -15 -9 -32 -9 -18 1 -27 3 -20 5 6 3 12 9 12 14 0 6
-4 7 -10 4 -6 -3 -10 1 -10 10 0 10 5 13 12 9 7 -5 8 -3 3 6 -6 10 -11 9 -21
-4 -6 -10 -29 -19 -51 -22 -35 -4 -37 -3 -19 11 11 8 14 15 7 15 -7 0 -9 5 -5
13 5 8 2 8 -9 -2 -24 -19 -21 -2 5 26 12 13 17 23 11 23 -6 0 -20 -11 -30 -25
-16 -22 -21 -24 -36 -13 -14 11 -15 19 -8 46 6 18 6 30 1 27 -17 -11 -24 -76
-9 -86 10 -6 8 -9 -8 -9 -17 0 -23 6 -24 23 -1 19 -2 19 -14 -8 l-13 -30 -10
35 c-8 26 -10 29 -11 12 -1 -14 -5 -21 -12 -16 -8 4 -8 0 0 -15 9 -16 9 -21
-1 -21 -7 0 -20 15 -28 32 l-15 33 -3 -32 c-2 -23 -7 -30 -18 -26 -11 4 -12 9
-3 19 8 10 6 12 -11 9 -19 -4 -21 -1 -16 23 5 20 4 23 -4 12 -9 -13 -10 -13
-10 0 0 13 -1 13 -10 0 -12 -18 -13 -53 -2 -46 13 8 35 -11 28 -23 -5 -8 -12
-7 -22 4 -9 8 -20 12 -26 9 -6 -4 -8 4 -6 22 3 16 3 23 1 16 -3 -6 -8 -12 -13
-12 -5 0 -7 -8 -4 -17 5 -16 4 -16 -6 0 -6 10 -9 24 -6 32 6 16 -19 39 -34 30
-5 -3 -10 -1 -10 4 0 6 10 11 23 11 19 1 20 2 5 11 -13 7 -22 5 -36 -9 -10
-10 -17 -23 -15 -28 2 -6 -3 -11 -10 -11 -8 0 -14 10 -13 21 1 15 -5 21 -22
22 -32 2 -70 23 -76 43 -3 9 -4 4 -2 -11 3 -25 1 -27 -23 -21 -14 3 -30 12
-34 20 -7 11 -12 12 -24 2 -24 -21 -55 -19 -50 3 3 10 1 15 -5 12 -5 -3 -18 2
-29 12 -11 10 -19 12 -19 6 0 -7 5 -12 10 -12 6 0 10 -5 10 -11 0 -6 -7 -9
-15 -5 -9 3 -15 0 -15 -10 0 -8 4 -13 9 -10 14 9 31 -18 24 -42 -6 -23 -23
-30 -23 -9 0 8 -4 7 -10 -3 -6 -9 -10 -10 -10 -3 0 6 7 18 15 27 18 18 19 27
3 23 -9 -1 -13 12 -12 43 0 25 -1 39 -3 32 -3 -6 -10 -9 -15 -6 -6 4 -8 3 -5
-3 3 -5 0 -10 -7 -10 -8 0 -12 9 -10 21 3 14 1 12 -6 -5 -6 -15 -20 -29 -30
-32 -18 -5 -18 -3 -4 19 9 13 14 29 11 36 -4 8 -6 7 -6 -4 -1 -9 -5 -19 -10
-22 -5 -4 -7 4 -5 16 2 13 1 16 -2 8 -4 -8 -14 -24 -24 -35 -10 -11 -20 -27
-24 -35 -3 -8 -4 3 -2 25 2 22 2 34 -1 27 -2 -6 -9 -10 -14 -6 -5 3 0 19 11
35 12 16 17 29 12 29 -5 0 -14 -12 -21 -26 -10 -23 -14 -24 -28 -13 -14 12
-15 11 -9 -7 4 -14 2 -21 -8 -21 -9 0 -12 9 -9 28 2 15 -1 31 -8 35 -9 5 -10
2 -6 -10 4 -11 3 -15 -4 -11 -6 4 -8 14 -4 22 3 9 -2 24 -11 34 -21 23 -64 25
-64 4 0 -17 16 -20 25 -5 5 8 11 7 21 -1 12 -10 11 -14 -8 -24 -16 -8 -25 -8
-30 -1 -5 7 -8 3 -9 -9 0 -11 -3 -15 -5 -8 -3 7 -12 9 -20 6 -8 -3 -14 0 -14
6 0 6 7 11 16 11 14 0 14 3 4 15 -7 8 -19 15 -26 15 -8 0 -14 7 -14 15 0 21
-17 19 -30 -5 -9 -16 -8 -18 5 -14 8 4 15 1 15 -6 0 -6 5 -8 10 -5 6 3 10 1
10 -5 0 -6 -6 -10 -12 -9 -28 3 -49 -1 -44 -10 3 -5 -1 -12 -10 -15 -17 -7
-13 17 13 67 8 16 12 31 10 34 -3 2 -8 -5 -12 -17 -4 -13 -12 -19 -21 -16 -7
3 -16 1 -19 -4 -3 -4 1 -10 7 -13 7 -2 9 -8 5 -13 -5 -5 -15 -1 -23 10 -12 17
-14 18 -14 3 0 -9 -4 -17 -9 -17 -5 0 -11 -10 -14 -22 -4 -12 -9 -20 -12 -16
-3 3 -2 16 3 29 11 29 -5 100 -17 80 -5 -7 -12 -12 -17 -11 -5 0 -10 -8 -12
-19 -3 -21 -29 -47 -38 -38 -3 3 2 19 10 36 12 22 13 32 4 37 -6 4 -8 3 -4 -4
7 -11 -19 -42 -36 -42 -5 0 -8 6 -5 13 2 6 10 11 16 9 7 -1 10 2 6 7 -3 6 2
23 11 38 12 21 12 23 1 10 -8 -10 -19 -18 -24 -19 -4 0 -7 -3 -6 -7 1 -4 -8
-8 -20 -8 -11 -1 -25 -9 -29 -18 -10 -17 -34 -20 -43 -5 -4 6 1 7 12 3 10 -3
15 -2 11 2 -5 5 4 23 18 42 14 18 21 33 17 33 -5 0 -14 -9 -21 -20 -7 -12 -17
-18 -22 -15 -5 3 -11 1 -15 -5 -3 -5 -11 -10 -17 -10 -6 0 -3 8 6 19 16 17 16
19 -4 24 -15 4 -21 12 -18 28 2 15 -4 24 -19 30 -17 6 -23 5 -23 -5 0 -8 6
-17 13 -19 9 -4 8 -6 -2 -6 -7 -1 -21 -9 -30 -19 -20 -23 -69 -38 -50 -16 6 7
14 12 18 10 4 -3 13 4 19 15 12 19 11 19 -7 9 -18 -9 -21 -8 -18 12 1 17 -4
24 -21 26 -20 3 -21 6 -10 20 7 9 -1 5 -17 -9 -33 -29 -82 -43 -82 -23 0 7 6
10 12 8 7 -3 20 8 30 23 12 18 13 24 4 16 -8 -6 -19 -9 -25 -5 -13 9 -27 45
-15 37 11 -6 26 13 18 21 -3 3 -15 -4 -26 -15 l-21 -21 -6 28 c-10 44 -12 48
-13 20 -1 -21 -6 -28 -20 -28 -11 0 -22 -4 -25 -9 -4 -5 5 -8 19 -6 l26 2 -22
-23 c-11 -12 -18 -27 -14 -33 3 -6 -1 -11 -9 -11 -9 0 -16 5 -16 11 0 5 -4 7
-10 4 -5 -3 -10 -1 -10 5 0 7 6 10 14 7 7 -3 19 0 25 6 16 16 14 27 -4 21 -24
-10 -18 22 8 39 16 11 18 15 5 13 -9 -1 -25 -10 -36 -19 -10 -9 -24 -17 -31
-17 -7 0 -11 -6 -8 -14 6 -15 -11 -36 -27 -36 -6 0 -2 7 9 16 19 14 19 15 -2
11 -13 -2 -26 -6 -29 -10 -12 -11 -21 -8 -21 7 0 8 5 14 10 13 5 -1 11 6 12
15 2 10 13 32 25 50 16 25 17 28 3 12 -14 -16 -24 -19 -35 -13 -10 6 -27 5
-44 -1 -25 -10 -26 -12 -10 -23 17 -12 17 -14 -1 -28 -16 -13 -17 -13 -4 4 9
12 10 17 2 17 -7 0 -18 15 -26 33 -12 27 -14 28 -15 10 0 -13 -4 -23 -10 -23
-14 0 -12 33 3 50 6 8 -4 3 -23 -11 -57 -41 -62 -43 -60 -23 4 33 0 45 -11 39
-6 -4 -8 -13 -5 -20 5 -15 -17 -38 -27 -28 -4 3 -7 -1 -7 -11 0 -9 -4 -14 -10
-11 -16 10 -12 23 10 30 11 4 18 10 15 14 -6 11 21 46 36 46 22 0 32 30 23 71
l-8 39 -6 -55 c-4 -30 -7 -51 -8 -46 -1 5 -8 3 -16 -4 -12 -9 -19 -4 -36 29
-21 43 -36 55 -25 21 4 -13 0 -23 -14 -32 -12 -7 -21 -18 -21 -25 0 -7 -7 -13
-16 -13 -8 0 -12 5 -9 10 3 6 1 10 -4 10 -6 0 -11 4 -11 10 0 5 8 6 18 3 15
-6 15 -5 3 10 -7 9 -11 17 -7 17 3 0 -2 8 -11 18 -16 16 -19 16 -25 2 -4 -9
-7 -2 -7 19 -1 19 -4 31 -8 28 -3 -4 -13 -1 -21 6 -13 9 -14 9 -8 0 4 -8 2
-13 -4 -13 -7 0 -21 -11 -32 -25 -27 -35 -41 -22 -23 23 11 28 12 33 1 20 -18
-25 -72 -24 -79 1 -2 10 0 27 6 37 9 17 9 18 -6 5 -9 -7 -17 -10 -17 -5 0 4
12 19 28 31 22 19 19 19 -19 -4 -26 -16 -45 -30 -44 -33 2 -3 -6 -7 -17 -7
-12 -1 -25 -6 -31 -12 -6 -6 -18 -4 -33 6 -20 12 -27 13 -39 3 -18 -15 -30 -7
-22 15 4 8 18 15 32 15 37 0 30 17 -10 24 -19 4 -35 11 -35 17 0 6 -4 8 -9 5
-5 -3 -11 3 -14 14 -5 21 -33 37 -44 26 -3 -3 -2 -16 4 -29 10 -21 9 -22 -28
-19 -22 2 -39 6 -39 8 0 3 7 21 15 41 22 52 18 54 -10 5 -13 -24 -24 -46 -23
-50 1 -4 -1 -23 -6 -42 -7 -30 -9 -32 -16 -15 -5 13 -2 27 9 40 14 17 14 18 0
7 -13 -10 -18 -8 -28 14 -6 14 -7 23 -2 19 9 -5 12 2 27 58 l6 22 -17 -23 c-9
-12 -13 -26 -10 -32 3 -5 0 -7 -9 -4 -8 3 -17 11 -19 17 -2 7 -2 2 0 -11 5
-32 -13 -61 -38 -59 -17 1 -18 3 -5 12 10 8 12 16 5 26 -5 8 -7 28 -4 44 4 26
4 27 -5 8 -10 -25 -26 -32 -16 -8 7 20 -3 19 -42 -5 l-34 -21 6 33 6 33 -11
-28 c-7 -18 -8 -32 -2 -38 11 -11 43 -2 43 12 0 5 4 9 9 9 5 0 4 -13 -2 -30
-6 -16 -14 -30 -17 -30 -10 0 -26 15 -43 39 -14 22 -14 27 -1 53 8 16 13 35
11 41 -3 7 -8 0 -12 -15 -10 -39 -26 -35 -19 5 5 32 5 32 -9 8 -8 -14 -13 -32
-10 -40 3 -9 -2 -6 -12 7 -10 14 -13 28 -8 35 4 7 1 4 -7 -6 -30 -39 -63 -66
-71 -61 -13 8 -11 42 2 46 7 2 13 17 15 32 3 26 2 27 -11 10 -15 -20 -19 -16
-9 10 3 9 14 16 23 16 10 1 6 6 -12 16 -15 8 -40 13 -55 11 l-27 -4 33 -14
c33 -14 39 -23 22 -34 -5 -3 -10 -1 -10 6 0 7 -7 4 -15 -7 -14 -18 -14 -18 -8
4 10 40 -24 25 -41 -18 -19 -48 -29 -53 -14 -7 6 17 11 40 11 50 1 9 5 17 9
17 4 0 8 5 8 11 0 5 -4 7 -10 4 -5 -3 -10 -1 -10 5 0 6 -5 8 -10 5 -6 -4 -8
-10 -5 -15 9 -14 -16 -23 -28 -11 -16 16 -27 14 -27 -6 -1 -17 -1 -17 -14 0
-8 10 -23 19 -35 20 -18 1 -19 3 -6 16 11 12 19 12 39 3 28 -13 49 4 25 19
-22 14 -51 10 -65 -8 -7 -10 -15 -15 -19 -11 -4 4 10 29 31 55 21 26 29 40 17
30 -16 -14 -22 -15 -26 -5 -3 7 -6 1 -6 -14 -1 -24 -38 -64 -49 -53 -2 2 -8
39 -13 82 -8 78 -8 77 -4 -21 5 -98 5 -98 -18 -91 -12 3 -27 7 -34 7 -6 1 -9
8 -6 17 3 9 -9 0 -27 -19 -18 -19 -29 -27 -26 -17 3 9 1 17 -4 17 -6 0 -10
-10 -10 -22 0 -19 -2 -20 -10 -8 -8 12 -10 12 -10 1 0 -8 -3 -12 -6 -9 -13 13
18 48 41 48 28 0 33 21 10 40 -12 10 -13 16 -4 27 7 7 9 17 5 21 -4 4 -20 -9
-36 -28 l-28 -34 5 29 c3 17 19 49 35 73 29 41 26 59 -4 25 -20 -23 -73 -126
-70 -136 1 -5 -3 -5 -9 -2 -6 4 -8 16 -6 27 3 11 1 18 -6 15 -6 -2 -13 -21
-15 -42 -2 -22 -10 -48 -18 -59 -13 -19 -14 -18 -14 16 0 20 4 39 8 42 4 2 8
22 9 43 0 23 -1 28 -4 13 -3 -14 -9 -29 -15 -35 -8 -7 -9 -4 -5 8 4 11 3 16
-4 12 -5 -4 -7 -15 -4 -25 6 -18 -13 -60 -26 -60 -4 0 -3 17 2 38 5 20 8 48 8
62 -1 14 -7 0 -14 -30 -12 -52 -19 -59 -16 -15 2 16 0 17 -8 6 -7 -10 -8 -1
-4 30 3 24 15 58 25 74 18 26 16 26 -11 -5 -17 -19 -31 -38 -31 -42 0 -18 -21
-6 -32 17 -6 14 -15 25 -20 25 -5 0 -7 -4 -4 -9 4 -5 1 -22 -5 -38 -10 -26
-12 -26 -19 -8 -7 19 -8 18 -13 -5 -4 -20 -5 -17 -5 10 0 19 -1 46 -2 60 -2
21 -3 20 -10 -10 -5 -19 -6 -54 -3 -77 6 -42 -6 -58 -23 -31 -4 6 -3 8 3 5 8
-5 11 13 10 53 -2 68 -15 57 -24 -20 -3 -28 -9 -52 -12 -55 -4 -2 -5 13 -3 33
3 20 1 34 -3 30 -8 -7 -13 -33 -14 -67 -2 -45 -14 -12 -18 48 -2 35 0 62 6 66
6 3 11 16 10 28 -1 20 -2 20 -12 -5 -7 -14 -21 -35 -31 -46 -16 -19 -15 -49 2
-38 4 2 8 -10 9 -27 2 -29 -11 -57 -27 -57 -12 0 -4 135 10 159 7 15 8 27 1
39 -9 15 -10 15 -11 -5 0 -30 -11 -54 -21 -47 -5 3 -6 -1 -4 -8 3 -8 -1 -22
-8 -33 -13 -17 -14 -13 -12 38 2 31 -1 57 -6 57 -5 0 -9 -25 -9 -55 0 -51 -12
-72 -23 -42 -4 9 -6 9 -6 -1 -1 -7 -5 -10 -11 -7 -13 8 -13 -1 0 -26 6 -11 7
-19 2 -19 -19 0 -22 45 -5 57 9 7 17 23 18 35 1 13 5 32 9 43 4 11 0 8 -11 -8
-23 -35 -45 -31 -54 11 -8 41 -8 41 -41 35 -16 -3 -30 -14 -34 -25 -4 -15 -8
-17 -14 -8 -5 9 -9 9 -14 1 -4 -6 -4 -15 -1 -21 11 -17 -7 -11 -21 8 -13 16
-14 16 -8 -2 6 -16 4 -17 -14 -7 -25 13 -29 31 -7 31 25 0 17 18 -15 35 -16 8
-32 15 -35 15 -28 -1 -37 1 -32 7 4 3 -1 12 -11 19 -31 22 -40 0 -36 -84 3
-61 2 -72 -6 -52 -11 24 -18 70 -19 118 -1 12 -6 22 -12 22 -6 0 -9 -7 -5 -15
3 -8 1 -15 -4 -15 -6 0 -13 0 -17 -1 -3 0 -14 21 -24 46 -19 50 -64 115 -80
115 -6 0 1 -15 14 -32z m-506 -94 c-9 -9 -28 6 -21 18 4 6 10 6 17 -1 6 -6 8
-13 4 -17z m27 -43 c-9 -12 -20 13 -16 36 l6 28 6 -30 c4 -16 5 -32 4 -34z
m-174 28 c0 -5 4 -8 9 -4 5 3 13 0 17 -6 4 -8 3 -9 -4 -5 -7 4 -12 1 -12 -6 0
-9 -3 -9 -10 2 -9 14 -14 7 -11 -13 1 -5 -3 -6 -9 -2 -5 3 -10 1 -10 -5 0 -6
-4 -8 -10 -5 -5 3 -10 17 -10 31 0 19 5 24 25 24 14 0 25 -5 25 -11z m-62 -18
c-4 -19 -22 -18 -26 2 -2 7 4 14 13 14 9 0 15 -7 13 -16z m-321 -13 c-3 -8 -6
-5 -6 6 -1 11 2 17 5 13 3 -3 4 -12 1 -19z m478 2 c-3 -4 2 -13 10 -20 19 -16
20 -31 1 -24 -8 3 -16 -3 -19 -16 -3 -14 -10 -19 -17 -15 -9 5 -10 1 -5 -14 4
-12 2 -21 -4 -21 -14 0 -14 30 -1 50 9 13 10 13 11 0 0 -10 3 -8 8 5 5 11 5
25 2 30 -6 9 -7 20 -2 41 0 3 6 2 11 -1 6 -4 8 -10 5 -15z m242 -62 c-2 -18
-4 -6 -4 27 0 33 2 48 4 33 2 -15 2 -42 0 -60z m-644 3 c-2 -3 -8 0 -14 6 -7
7 -9 22 -4 40 l9 28 6 -35 c3 -19 5 -37 3 -39z m527 49 c0 -5 -2 -10 -4 -10
-3 0 -8 5 -11 10 -3 6 -1 10 4 10 6 0 11 -4 11 -10z m640 -2 c0 -18 -12 -32
-28 -36 -8 -1 -12 3 -9 10 2 7 10 12 16 10 7 -1 10 2 6 8 -3 6 -11 8 -16 5 -5
-4 -9 -1 -9 4 0 6 9 11 20 11 11 0 20 -6 20 -12z m-92 -39 c3 -11 1 -11 -7 1
-6 8 -11 11 -11 7 0 -10 -30 19 -30 29 0 11 44 -22 48 -37z m-1148 11 c8 -15
6 -28 -10 -57 -12 -21 -19 -30 -16 -20 3 10 6 36 6 58 0 44 4 48 20 19z m187
-2 c-3 -8 -6 -5 -6 6 -1 11 2 17 5 13 3 -3 4 -12 1 -19z m29 -8 c1 -16 -3 -27
-7 -24 -14 8 -9 54 5 54 1 0 1 -13 2 -30z m335 8 c10 -18 9 -20 -6 -15 -9 4
-19 7 -21 7 -2 0 -4 7 -4 15 0 22 18 18 31 -7z m719 1 c0 -5 -4 -9 -10 -9 -5
0 -10 7 -10 16 0 8 5 12 10 9 6 -3 10 -10 10 -16z m-900 -4 c4 3 6 -4 3 -15
-3 -11 -9 -20 -14 -20 -14 0 -21 20 -14 38 5 12 9 13 12 4 3 -6 8 -10 13 -7z
m215 6 c3 -5 1 -12 -5 -16 -5 -3 -10 1 -10 9 0 18 6 21 15 7z m-275 -5 c0 -3
-4 -8 -10 -11 -5 -3 -10 -1 -10 4 0 6 5 11 10 11 6 0 10 -2 10 -4z m117 -11
c4 -4 2 -5 -4 -1 -9 5 -13 -1 -13 -21 0 -22 -2 -25 -10 -13 -8 13 -10 12 -10
-4 0 -11 -2 -17 -5 -14 -3 3 -2 19 1 35 6 30 24 37 41 18z m199 0 c11 -27 -2
-37 -14 -11 -7 16 -8 26 -1 26 5 0 12 -7 15 -15z m-556 -37 c0 -16 -3 -18 -14
-9 -8 6 -16 20 -19 31 -4 17 -2 18 14 9 10 -5 19 -19 19 -31z m1390 20 c0 -15
-5 -19 -20 -15 -12 3 -24 -1 -29 -11 -14 -25 -26 -6 -14 20 14 31 63 35 63 6z
m-910 -3 c0 -1 -6 -8 -14 -15 -12 -9 -15 -8 -13 8 0 12 6 18 14 15 7 -3 13 -6
13 -8z m120 2 c0 -7 -7 -22 -15 -33 -14 -18 -14 -17 -15 14 0 22 5 32 15 32 8
0 15 -6 15 -13z m21 -10 c-10 -9 -11 -8 -5 6 3 10 9 15 12 12 3 -3 0 -11 -7
-18z m-81 -19 c0 -5 -4 -8 -10 -8 -5 0 -10 10 -10 23 0 18 2 19 10 7 5 -8 10
-18 10 -22z m-582 -18 c-2 -5 -9 -6 -16 -1 -7 4 -10 15 -6 25 6 17 8 17 16 2
5 -9 8 -21 6 -26z m1119 18 c-3 -8 -6 -5 -6 6 -1 11 2 17 5 13 3 -3 4 -12 1
-19z m83 1 c15 -27 9 -52 -12 -55 -19 -2 -25 21 -8 31 6 3 10 -2 10 -11 0 -10
3 -15 6 -11 10 10 -5 58 -16 52 -6 -3 -10 -1 -10 4 0 18 19 12 30 -10z m-1080
-19 c0 -15 -5 -12 -26 11 -19 22 -19 22 4 10 12 -6 22 -16 22 -21z m46 -17
c-13 -14 -25 9 -13 28 12 20 12 20 15 -1 2 -12 1 -24 -2 -27z m794 26 c0 -13
4 -18 13 -13 9 5 9 4 0 -6 -6 -7 -16 -9 -22 -6 -14 9 -14 46 -1 46 6 0 10 -9
10 -21z m88 -12 c-11 -21 -11 -21 -18 -2 -4 11 -3 23 3 27 19 12 28 -2 15 -25z
m46 -9 c3 -16 1 -30 -5 -34 -8 -5 -8 -8 0 -13 8 -5 7 -13 -3 -27 -13 -17 -15
-12 -13 48 2 67 9 76 21 26z m-1006 -3 c24 -38 30 -60 8 -29 -8 10 -20 19 -28
19 -7 0 -14 10 -16 23 -5 32 10 27 36 -13z m1170 -12 c1 -37 1 -37 -12 -14 -8
14 -12 31 -9 38 10 25 20 13 21 -24z m45 31 c-7 -3 -9 -12 -6 -20 3 -8 0 -14
-5 -14 -6 0 -13 -10 -15 -22 -3 -18 -5 -16 -6 8 -1 30 14 55 34 53 5 0 5 -3
-2 -5z m42 -20 c9 3 12 0 8 -10 -7 -19 -34 1 -32 25 1 13 2 12 6 -2 3 -11 11
-16 18 -13z m436 -37 c-4 -4 -8 9 -8 30 -1 38 -1 38 8 8 5 -16 5 -33 0 -38z
m-1857 38 c-4 -8 -8 -15 -10 -15 -2 0 -4 7 -4 15 0 8 4 15 10 15 5 0 7 -7 4
-15z m567 -12 c-12 -20 -14 -14 -5 12 4 9 9 14 11 11 3 -2 0 -13 -6 -23z m199
11 c0 -8 -4 -12 -10 -9 -5 3 -10 10 -10 16 0 5 5 9 10 9 6 0 10 -7 10 -16z
m750 -2 c0 -11 -9 -27 -19 -36 -19 -17 -19 -17 -14 5 5 18 3 21 -10 16 -9 -3
-19 -2 -22 3 -4 6 3 10 14 10 11 0 23 5 26 10 10 16 25 11 25 -8z m-868 -24
c-8 -8 -9 -4 -5 13 4 13 8 18 11 10 2 -7 -1 -18 -6 -23z m175 0 c-3 -7 -5 -2
-5 12 0 14 2 19 5 13 2 -7 2 -19 0 -25z m-760 -35 c-8 -8 -38 37 -32 47 5 7
12 1 21 -16 8 -15 13 -29 11 -31z m443 35 c0 -19 -2 -20 -10 -8 -13 19 -13 30
0 30 6 0 10 -10 10 -22z m100 -11 c0 -18 -2 -19 -10 -7 -13 20 -13 43 0 35 6
-3 10 -16 10 -28z m473 20 c3 -8 1 -20 -4 -28 -5 -9 -9 -9 -9 -2 0 6 -3 18 -6
27 -3 9 -2 16 4 16 5 0 12 -6 15 -13z m50 -2 c-3 -9 -8 -14 -10 -11 -3 3 -2 9
2 15 9 16 15 13 8 -4z m-999 -11 c4 -10 1 -14 -6 -12 -15 5 -23 28 -10 28 5 0
13 -7 16 -16z m122 -4 c0 -11 -1 -20 -3 -20 -1 0 -7 9 -13 20 -8 15 -8 20 3
20 7 0 13 -9 13 -20z m715 -27 c-9 -16 -10 -15 -11 8 0 14 3 29 8 33 12 12 14
-22 3 -41z m629 23 c0 -3 -4 -8 -10 -11 -5 -3 -10 -1 -10 4 0 6 5 11 10 11 6
0 10 -2 10 -4z m-676 -21 c-7 -16 -24 -21 -24 -6 0 8 7 13 27 20 1 1 0 -6 -3
-14z m937 -31 c-25 -32 -27 -24 -4 19 9 18 18 26 20 20 3 -7 -5 -25 -16 -39z
m-1654 4 c-3 -7 -5 -2 -5 12 0 14 2 19 5 13 2 -7 2 -19 0 -25z m1133 0 c0 -5
-4 -8 -10 -8 -5 0 -10 10 -10 23 0 18 2 19 10 7 5 -8 10 -18 10 -22z m98 -14
c-3 -27 -4 -26 -9 8 -3 22 -1 34 4 29 5 -5 7 -21 5 -37z m65 21 c-3 -9 -8 -14
-10 -11 -3 3 -2 9 2 15 9 16 15 13 8 -4z m47 -1 c0 -8 -4 -12 -10 -9 -5 3 -10
10 -10 16 0 5 5 9 10 9 6 0 10 -7 10 -16z m260 -25 c0 -20 -15 -26 -25 -9 -9
15 3 43 15 35 5 -3 10 -15 10 -26z m-113 -1 c-3 -8 -6 -5 -6 6 -1 11 2 17 5
13 3 -3 4 -12 1 -19z m360 -4 c-9 -9 -28 6 -21 18 4 6 10 6 17 -1 6 -6 8 -13
4 -17z m-994 1 c-3 -9 -8 -14 -10 -11 -3 3 -2 9 2 15 9 16 15 13 8 -4z m827
-6 c0 -11 -4 -18 -10 -14 -5 3 -7 12 -3 20 7 21 13 19 13 -6z m40 6 c0 -8 -4
-15 -10 -15 -5 0 -7 7 -4 15 4 8 8 15 10 15 2 0 4 -7 4 -15z m58 -60 c0 -15
-2 -13 -10 8 -5 15 -14 27 -19 27 -5 0 -4 9 3 20 13 20 13 20 19 -7 4 -15 7
-37 7 -48z m217 61 c19 -10 23 -16 14 -22 -7 -4 -14 -3 -16 3 -2 6 -13 9 -24
6 -15 -4 -18 -2 -13 11 7 19 5 19 39 2z m86 -14 c0 -10 3 -12 5 -5 4 9 14 8
40 -4 19 -9 34 -20 34 -25 0 -12 -14 -10 -29 5 -11 10 -14 10 -18 0 -9 -24
-30 -13 -40 22 -6 19 -7 33 -2 29 5 -3 9 -13 10 -22z m-1341 14 c0 -3 -4 -8
-10 -11 -5 -3 -10 -1 -10 4 0 6 5 11 10 11 6 0 10 -2 10 -4z m170 0 c0 -3 -4
-8 -10 -11 -5 -3 -10 -1 -10 4 0 6 5 11 10 11 6 0 10 -2 10 -4z m107 -18 c-3
-8 -6 -5 -6 6 -1 11 2 17 5 13 3 -3 4 -12 1 -19z m1211 -26 c-15 -38 -26 -42
-24 -8 0 13 4 22 7 20 4 -2 10 3 13 12 4 9 9 15 11 12 3 -2 -1 -19 -7 -36z
m-2224 12 c3 -9 6 -23 6 -32 0 -13 -3 -12 -15 4 -16 21 -19 44 -6 44 5 0 12
-7 15 -16z m1337 -7 c-10 -9 -11 -8 -5 6 3 10 9 15 12 12 3 -3 0 -11 -7 -18z
m309 19 c0 -3 -4 -8 -10 -11 -5 -3 -10 -1 -10 4 0 6 5 11 10 11 6 0 10 -2 10
-4z m18 -41 c-3 -3 -9 2 -12 12 -6 14 -5 15 5 6 7 -7 10 -15 7 -18z m69 -7
c-3 -7 -5 -2 -5 12 0 14 2 19 5 13 2 -7 2 -19 0 -25z m224 22 c15 0 10 -27 -8
-41 -9 -8 -14 -9 -10 -3 4 7 0 14 -8 18 -8 3 -15 13 -15 22 0 11 5 14 16 10 9
-3 20 -6 25 -6z m-2055 -77 c-5 -5 -36 62 -36 76 1 3 10 -11 21 -32 11 -22 18
-41 15 -44z m2284 67 c0 -5 -5 -10 -11 -10 -5 0 -7 5 -4 10 3 6 8 10 11 10 2
0 4 -4 4 -10z m-1459 -23 c-10 -9 -11 -8 -5 6 3 10 9 15 12 12 3 -3 0 -11 -7
-18z m1159 19 c0 -3 -4 -8 -10 -11 -5 -3 -10 -1 -10 4 0 6 5 11 10 11 6 0 10
-2 10 -4z m150 -12 c0 -8 -32 -33 -42 -34 -3 0 -4 9 -1 20 5 18 43 30 43 14z
m262 -14 c-2 -7 -4 -26 -5 -41 -2 -21 -5 -25 -15 -17 -7 6 -9 14 -4 17 4 3 8
17 9 31 1 23 1 24 -9 5 -5 -12 -19 -27 -31 -34 -21 -14 -21 -13 -4 13 10 14
14 26 10 26 -5 0 -1 5 7 10 20 13 46 7 42 -10z m-98 -15 c-4 -8 -8 -15 -10
-15 -2 0 -4 7 -4 15 0 8 4 15 10 15 5 0 7 -7 4 -15z m202 -33 c-8 -16 -22 -32
-30 -35 -10 -4 -9 5 7 38 12 24 26 40 30 36 5 -5 2 -22 -7 -39z m-372 19 c-10
-10 -25 -16 -33 -13 -9 3 -3 9 15 18 39 17 40 17 18 -5z m-104 -1 c0 -5 -8
-10 -17 -10 -15 0 -16 2 -3 10 19 12 20 12 20 0z m-420 -14 c0 -3 -4 -8 -10
-11 -5 -3 -10 -1 -10 4 0 6 5 11 10 11 6 0 10 -2 10 -4z m703 -11 c-3 -9 -8
-14 -10 -11 -3 3 -2 9 2 15 9 16 15 13 8 -4z m147 -10 c-7 -9 -15 -13 -18 -10
-3 2 1 11 8 20 7 9 15 13 18 10 3 -2 -1 -11 -8 -20z m72 -15 c-13 -23 -18 -26
-21 -13 -2 9 4 22 13 28 9 7 12 16 8 20 -4 5 -2 5 5 1 9 -5 7 -14 -5 -36z
m-745 8 c-3 -8 -6 -5 -6 6 -1 11 2 17 5 13 3 -3 4 -12 1 -19z m556 -19 c-9 -9
-12 -7 -10 9 1 14 5 18 11 12 7 -7 6 -14 -1 -21z m41 12 c3 -4 -1 -17 -9 -27
-14 -18 -14 -18 -15 9 0 26 13 36 24 18z m166 -27 c-18 -21 -24 -10 -9 18 8
14 14 18 17 10 2 -7 -2 -19 -8 -28z m-953 -6 c-3 -7 -5 -2 -5 12 0 14 2 19 5
13 2 -7 2 -19 0 -25z m878 2 c3 -6 -1 -7 -9 -4 -18 7 -21 14 -7 14 6 0 13 -4
16 -10z m-30 -10 c3 -5 1 -10 -4 -10 -6 0 -11 5 -11 10 0 6 2 10 4 10 3 0 8
-4 11 -10z m131 -35 c-8 -21 -26 -19 -26 3 0 14 2 15 10 2 8 -12 10 -10 11 10
0 14 3 19 6 12 3 -7 2 -19 -1 -27z m-216 15 c0 -5 -5 -10 -11 -10 -5 0 -7 5
-4 10 3 6 8 10 11 10 2 0 4 -4 4 -10z m466 -6 c-3 -8 -2 -13 2 -10 4 2 21 -7
37 -21 17 -14 24 -22 17 -18 -7 4 -21 1 -30 -7 -15 -12 -16 -11 -3 5 8 10 9
17 3 17 -6 0 -14 -5 -17 -10 -10 -17 -20 -4 -23 29 -1 18 3 31 9 31 6 0 8 -7
5 -16z m78 -3 c3 -4 -6 -6 -19 -3 -14 2 -25 6 -25 8 0 8 39 4 44 -5z m-522
-23 c-7 -7 -12 -8 -12 -2 0 14 12 26 19 19 2 -3 -1 -11 -7 -17z m351 5 c-3 -7
-6 -13 -8 -13 -2 0 -5 6 -8 13 -3 8 1 14 8 14 7 0 11 -6 8 -14z m207 7 c0 -5
-2 -10 -4 -10 -3 0 -8 5 -11 10 -3 6 -1 10 4 10 6 0 11 -4 11 -10z m-205 -48
c-15 -16 -16 -15 -4 12 7 15 15 23 17 16 3 -7 -3 -19 -13 -28z m401 3 c18 -43
18 -65 0 -65 -16 0 -28 37 -15 46 5 3 9 10 9 15 0 6 -4 7 -10 4 -5 -3 -10 3
-10 14 0 31 9 26 26 -14z m-835 -2 c-12 -20 -14 -14 -5 12 4 9 9 14 11 11 3
-2 0 -13 -6 -23z m129 0 c0 -21 -3 -24 -9 -14 -5 8 -7 20 -4 28 8 21 13 15 13
-14z m148 2 c-2 -2 -6 -3 -10 -2 -4 1 -14 -7 -23 -18 -9 -11 -14 -14 -10 -7 3
6 0 12 -7 12 -8 1 -6 6 5 15 11 7 25 11 33 8 8 -3 14 -7 12 -8z m-208 -5 c0
-5 -4 -10 -10 -10 -5 0 -10 5 -10 10 0 6 5 10 10 10 6 0 10 -4 10 -10z m520
-11 c0 -5 5 -7 10 -4 14 9 13 -8 -2 -23 -18 -18 -25 -15 -25 13 0 14 3 25 8
25 5 0 9 -5 9 -11z m170 -9 c0 -5 -2 -10 -4 -10 -3 0 -8 5 -11 10 -3 6 -1 10
4 10 6 0 11 -4 11 -10z m43 -14 c3 -6 -4 -13 -14 -13 -13 -1 -19 5 -19 17 0
21 25 18 33 -4z m64 -18 c-3 -8 -6 -5 -6 6 -1 11 2 17 5 13 3 -3 4 -12 1 -19z
m113 -9 c0 -6 -3 -8 -7 -6 -5 3 -13 -1 -20 -8 -9 -10 -7 -13 13 -11 16 1 24 7
24 19 0 9 4 17 9 17 4 0 6 -11 3 -25 -2 -14 -8 -25 -13 -25 -5 0 -6 -7 -3 -15
4 -8 1 -15 -6 -15 -6 0 -8 5 -5 10 3 6 -1 13 -9 16 -16 6 -41 -13 -41 -31 0
-17 -34 -59 -42 -51 -4 4 -2 15 5 24 7 9 15 24 19 32 29 66 73 107 73 69z
m-250 -15 c0 -3 -5 -2 -11 2 -8 4 -9 0 -4 -15 10 -33 -2 -25 -14 9 -9 28 -9
29 9 20 11 -6 20 -13 20 -16z m170 19 c0 -5 -5 -15 -10 -23 -8 -12 -10 -11
-10 8 0 12 5 22 10 22 6 0 10 -3 10 -7z m-220 -17 c0 -8 -7 -16 -15 -20 -12
-4 -13 -2 -2 14 14 24 17 25 17 6z m130 -1 c0 -8 -7 -15 -15 -15 -16 0 -20 12
-8 23 11 12 23 8 23 -8z m340 -50 c0 -5 -5 -3 -10 5 -5 8 -10 20 -10 25 0 6 5
3 10 -5 5 -8 10 -19 10 -25z m-450 10 c0 -12 -19 -12 -23 0 -4 9 -1 12 9 8 7
-3 14 -7 14 -8z m417 -42 c0 -21 -2 -28 -4 -15 -4 20 -7 21 -21 10 -12 -10
-12 -8 2 15 10 15 19 27 21 27 1 0 2 -17 2 -37z m-139 0 c-2 -11 -13 -18 -26
-19 -21 -1 -22 0 -6 17 21 24 36 24 32 2z m159 -5 c-3 -8 -6 -5 -6 6 -1 11 2
17 5 13 3 -3 4 -12 1 -19z m-87 2 c0 -5 -7 -7 -15 -4 -8 4 -15 8 -15 10 0 2 7
4 15 4 8 0 15 -4 15 -10z m50 -34 c0 -7 -7 -19 -15 -26 -13 -10 -18 -11 -28
-1 -9 10 -8 15 7 27 25 18 36 18 36 0z m156 -13 c-3 -31 -14 -37 -36 -23 -13
9 -11 13 10 30 14 11 26 20 27 20 1 0 0 -12 -1 -27z m130 -1 c1 -7 0 -8 -3 -2
-2 5 -9 8 -14 4 -5 -3 -9 0 -9 6 0 15 23 7 26 -8z m-452 -7 c-7 -16 -24 -21
-24 -6 0 8 7 13 27 20 1 1 0 -6 -3 -14z m147 -67 c-11 -11 -12 -10 -6 1 6 11
4 13 -10 7 -15 -5 -16 -4 -5 9 9 11 16 13 24 5 7 -7 6 -14 -3 -22z m199 28 c0
-3 -4 -8 -10 -11 -5 -3 -10 -1 -10 4 0 6 5 11 10 11 6 0 10 -2 10 -4z m-310
-10 c0 -3 -4 -8 -10 -11 -5 -3 -10 -1 -10 4 0 6 5 11 10 11 6 0 10 -2 10 -4z
m277 -2 c-3 -3 -12 -4 -19 -1 -8 3 -5 6 6 6 11 1 17 -2 13 -5z m324 -17 c-10
-9 -11 -8 -5 6 3 10 9 15 12 12 3 -3 0 -11 -7 -18z m-235 2 c3 -6 1 -16 -5
-22 -9 -9 -10 -7 -5 7 5 13 4 17 -4 12 -7 -4 -12 -2 -12 3 0 14 17 14 26 0z
m-111 -9 c3 -5 2 -10 -4 -10 -5 0 -13 5 -16 10 -3 6 -2 10 4 10 5 0 13 -4 16
-10z m195 -15 c0 -12 -19 -12 -23 0 -4 9 -1 12 9 8 7 -3 14 -7 14 -8z m36 -15
c-4 -37 -11 -46 -19 -25 -4 8 -2 15 4 15 6 0 7 5 4 10 -3 6 -3 15 0 20 11 18
15 11 11 -20z m242 -2 c8 -10 3 -14 -20 -15 -25 -2 -28 0 -18 12 15 18 24 19
38 3z m-332 -25 c-10 -10 -19 5 -10 18 6 11 8 11 12 0 2 -7 1 -15 -2 -18z m54
3 c0 -3 -4 -8 -10 -11 -5 -3 -10 -1 -10 4 0 6 5 11 10 11 6 0 10 -2 10 -4z
m86 -23 c-5 -15 -4 -15 9 1 8 11 15 15 15 10 0 -16 -21 -33 -36 -27 -7 2 -10
11 -7 19 8 20 26 17 19 -3z m160 -8 c-3 -8 -1 -15 5 -15 6 0 7 -5 3 -11 -4 -8
-9 -7 -14 2 -8 12 -3 39 7 39 3 0 3 -7 -1 -15z m94 -25 c0 -5 -4 -10 -10 -10
-5 0 -10 5 -10 10 0 6 5 10 10 10 6 0 10 -4 10 -10z m-474 -28 c-17 -16 -18
-16 -5 5 7 12 15 20 18 17 3 -2 -3 -12 -13 -22z m490 2 c-4 -9 -9 -15 -11 -12
-3 3 -3 13 1 22 4 9 9 15 11 12 3 -3 3 -13 -1 -22z m-376 7 c0 -5 -7 -14 -15
-21 -16 -14 -18 -10 -9 14 6 17 24 22 24 7z m409 -5 c9 -10 8 -15 -2 -19 -8
-3 -13 3 -14 14 -2 23 1 24 16 5z m-149 0 c0 -2 -7 -9 -15 -16 -13 -11 -14
-10 -9 4 5 14 24 23 24 12z m55 -15 c3 -5 2 -12 -3 -15 -5 -3 -9 1 -9 9 0 17
3 19 12 6z m191 -19 c-18 -16 -18 -16 -6 6 6 13 14 21 18 18 3 -4 -2 -14 -12
-24z m130 -40 c-14 -14 -16 -14 -16 -1 0 8 6 27 13 42 l12 27 3 -26 c2 -15 -3
-34 -12 -42z m-82 9 c4 -5 -3 -7 -14 -4 -23 6 -26 13 -6 13 8 0 17 -4 20 -9z
m48 -23 c-7 -7 -12 -8 -12 -2 0 14 12 26 19 19 2 -3 -1 -11 -7 -17z m18 -23
c0 -8 -4 -15 -10 -15 -5 0 -7 7 -4 15 4 8 8 15 10 15 2 0 4 -7 4 -15z m298 3
c8 -10 3 -13 -19 -13 -29 0 -35 5 -22 18 10 11 30 8 41 -5z m-244 -23 c-9 -14
-19 -24 -21 -21 -7 7 16 46 28 46 5 0 2 -11 -7 -25z m94 13 c-2 -6 -12 -12
-21 -14 -9 -1 -15 2 -11 7 3 5 10 7 15 4 5 -4 9 -1 9 4 0 6 3 11 6 11 3 0 4
-5 2 -12z m29 -18 c1 -11 -2 -20 -8 -20 -5 0 -9 9 -9 20 0 11 4 20 8 20 4 0 8
-9 9 -20z m98 -28 c-10 -9 -15 -11 -11 -4 4 7 2 12 -6 13 -7 0 -4 4 7 8 28 12
32 4 10 -17z m38 3 c-3 -9 -8 -14 -10 -11 -3 3 -2 9 2 15 9 16 15 13 8 -4z
m-163 -15 c0 -5 -5 -10 -11 -10 -5 0 -7 5 -4 10 3 6 8 10 11 10 2 0 4 -4 4
-10z m69 -12 c0 -16 -2 -18 -6 -8 -3 8 -11 18 -17 22 -7 5 -4 8 7 8 11 0 17
-7 16 -22z m214 7 c-3 -9 -8 -14 -10 -11 -3 3 -2 9 2 15 9 16 15 13 8 -4z
m-53 -15 c0 -19 -29 -61 -30 -43 0 6 4 14 10 18 5 3 7 12 4 20 -4 8 -11 12
-17 8 -5 -3 -7 -2 -4 4 10 16 37 11 37 -7z m127 0 c1 -11 -2 -22 -8 -25 -7 -5
-7 18 0 43 3 8 7 -1 8 -18z m-237 6 c0 -3 -4 -8 -10 -11 -5 -3 -10 -1 -10 4 0
6 5 11 10 11 6 0 10 -2 10 -4z m190 -36 c0 -5 -2 -10 -4 -10 -3 0 -8 5 -11 10
-3 6 -1 10 4 10 6 0 11 -4 11 -10z m245 -4 c14 -8 22 -17 17 -20 -6 -3 -17 0
-25 8 -11 11 -17 12 -26 3 -8 -8 -11 -7 -11 6 0 21 9 21 45 3z m-415 0 c0 -2
-8 -10 -17 -17 -16 -13 -17 -12 -4 4 13 16 21 21 21 13z m219 -13 c-7 -10 -14
-19 -15 -21 -1 -2 -4 4 -8 13 -3 9 -2 13 3 10 5 -3 12 -1 16 5 3 5 9 10 12 10
3 0 -1 -8 -8 -17z m311 -18 c0 -9 -55 4 -58 13 -2 8 5 9 27 1 17 -6 31 -12 31
-14z m-125 -5 c3 -5 -1 -10 -9 -10 -9 0 -16 5 -16 10 0 6 4 10 9 10 6 0 13 -4
16 -10z m213 -40 c-1 -22 -5 -40 -10 -40 -6 0 -6 14 -2 32 6 31 5 32 -11 18
-17 -14 -17 -13 -6 8 18 34 31 26 29 -18z m-167 23 c-11 -5 -11 -7 0 -15 12
-8 12 -9 0 -6 -22 6 -25 28 -4 27 12 0 14 -2 4 -6z m457 -61 c6 -18 -15 -14
-22 4 -4 10 -1 14 6 12 6 -2 14 -10 16 -16z m-30 -17 c-3 -3 -9 2 -12 12 -6
14 -5 15 5 6 7 -7 10 -15 7 -18z m-20 -10 c-3 -3 -9 2 -12 12 -6 14 -5 15 5 6
7 -7 10 -15 7 -18z m337 15 c3 -5 3 -16 -2 -22 -4 -7 -6 -21 -4 -32 1 -10 -1
-16 -6 -13 -12 8 -16 77 -4 77 5 0 13 -4 16 -10z m-225 -19 c0 -17 -18 -21
-24 -6 -3 9 0 15 9 15 8 0 15 -4 15 -9z m-215 -21 c-3 -5 -11 -10 -16 -10 -6
0 -7 5 -4 10 3 6 11 10 16 10 6 0 7 -4 4 -10z m473 -9 c3 -8 -1 -12 -9 -9 -7
2 -15 10 -17 17 -3 8 1 12 9 9 7 -2 15 -10 17 -17z m35 5 c4 -10 1 -13 -9 -9
-15 6 -19 23 -5 23 5 0 11 -7 14 -14z m-633 -6 c0 -5 -2 -10 -4 -10 -3 0 -8 5
-11 10 -3 6 -1 10 4 10 6 0 11 -4 11 -10z m677 -16 c-9 -9 -28 6 -21 18 4 6
10 6 17 -1 6 -6 8 -13 4 -17z"/>
<path d="M72 1830 c0 -14 2 -19 5 -12 2 6 2 18 0 25 -3 6 -5 1 -5 -13z"/>
<path d="M443 1836 c3 -7 0 -19 -6 -26 -9 -10 -9 -11 1 -6 7 4 19 2 27 -4 8
-7 23 -9 32 -5 16 6 15 9 -10 31 -31 27 -52 32 -44 10z"/>
<path d="M681 1834 c0 -11 3 -14 6 -6 3 7 2 16 -1 19 -3 4 -6 -2 -5 -13z"/>
<path d="M1748 1825 c-3 -14 -1 -25 3 -25 5 0 9 11 9 25 0 14 -2 25 -4 25 -2
0 -6 -11 -8 -25z"/>
<path d="M250 1830 c0 -5 5 -10 11 -10 5 0 7 5 4 10 -3 6 -8 10 -11 10 -2 0
-4 -4 -4 -10z"/>
<path d="M371 1824 c0 -11 3 -14 6 -6 3 7 2 16 -1 19 -3 4 -6 -2 -5 -13z"/>
<path d="M1910 1814 c0 -8 5 -12 10 -9 6 3 10 10 10 16 0 5 -4 9 -10 9 -5 0
-10 -7 -10 -16z"/>
<path d="M2106 1798 c-21 -33 -46 -115 -45 -146 0 -18 10 0 28 53 15 44 31 88
35 98 11 25 -1 21 -18 -5z"/>
<path d="M833 1750 c0 -25 2 -35 4 -22 2 12 2 32 0 45 -2 12 -4 2 -4 -23z"/>
<path d="M1880 1780 c0 -5 5 -10 11 -10 5 0 7 5 4 10 -3 6 -8 10 -11 10 -2 0
-4 -4 -4 -10z"/>
<path d="M490 1770 c-12 -7 -10 -9 7 -7 12 0 19 5 17 9 -6 10 -6 10 -24 -2z"/>
<path d="M932 1760 c0 -14 2 -19 5 -12 2 6 2 18 0 25 -3 6 -5 1 -5 -13z"/>
<path d="M2222 1717 c1 -38 7 -71 12 -74 5 -4 6 -1 2 5 -4 7 -2 12 3 12 17 0
12 82 -5 105 -14 18 -15 15 -12 -48z"/>
<path d="M1701 1743 c0 -25 1 -26 9 -8 12 27 12 35 0 35 -5 0 -10 -12 -9 -27z"/>
<path d="M2380 1748 c0 -19 2 -20 10 -8 13 19 13 30 0 30 -5 0 -10 -10 -10
-22z"/>
<path d="M1622 1740 c0 -14 2 -19 5 -12 2 6 2 18 0 25 -3 6 -5 1 -5 -13z"/>
<path d="M1412 1741 c-19 -11 -11 -43 10 -47 23 -3 31 11 23 36 -7 22 -13 24
-33 11z"/>
<path d="M1496 1703 c-6 -14 -5 -15 5 -6 7 7 10 15 7 18 -3 3 -9 -2 -12 -12z"/>
<path d="M1997 1690 c-9 -16 -12 -28 -8 -26 4 3 6 -16 3 -43 -2 -27 0 -51 5
-54 10 -6 28 141 19 150 -2 2 -11 -10 -19 -27z"/>
<path d="M2318 1714 c-5 -8 -11 -92 -9 -118 3 -24 28 19 29 49 2 39 -12 83
-20 69z"/>
<path d="M2407 1683 c-4 -3 -7 -16 -6 -27 0 -19 1 -19 10 3 10 24 8 36 -4 24z"/>
<path d="M2837 1610 c3 -30 7 -57 9 -59 8 -9 2 75 -6 94 -5 12 -6 -1 -3 -35z"/>
<path d="M11 1634 c0 -11 3 -14 6 -6 3 7 2 16 -1 19 -3 4 -6 -2 -5 -13z"/>
<path d="M1912 1615 c-17 -37 -14 -45 4 -12 9 16 14 31 11 33 -2 2 -9 -7 -15
-21z"/>
<path d="M2031 1614 c0 -11 3 -14 6 -6 3 7 2 16 -1 19 -3 4 -6 -2 -5 -13z"/>
<path d="M1761 1584 c0 -11 3 -14 6 -6 3 7 2 16 -1 19 -3 4 -6 -2 -5 -13z"/>
<path d="M2877 1551 c-5 -29 -6 -56 -3 -58 7 -8 18 61 14 88 -2 15 -7 3 -11
-30z"/>
<path d="M2795 1560 c3 -14 9 -34 12 -45 l5 -20 -15 20 c-22 27 -20 9 4 -40
15 -31 18 -34 14 -12 -3 15 -1 27 4 27 11 0 -1 49 -19 77 -10 16 -11 15 -5 -7z"/>
<path d="M2478 1533 c-24 -6 -23 -30 1 -42 14 -8 22 -7 30 3 14 17 -7 44 -31
39z"/>
<path d="M2840 1413 c-3 -34 -1 -58 3 -54 5 4 7 32 5 62 l-3 54 -5 -62z"/>
<path d="M2958 1457 c-12 -29 -10 -63 3 -50 6 6 9 23 7 39 -2 24 -4 26 -10 11z"/>
<path d="M3161 1402 c-7 -13 -11 -28 -8 -35 2 -7 9 -2 16 11 7 13 11 28 8 35
-2 7 -9 2 -16 -11z"/>
<path d="M3261 1352 c-7 -13 -11 -28 -8 -35 2 -7 9 -2 16 11 7 13 11 28 8 35
-2 7 -9 2 -16 -11z"/>
<path d="M3063 1310 c0 -25 2 -35 4 -22 2 12 2 32 0 45 -2 12 -4 2 -4 -23z"/>
<path d="M4171 1328 c-13 -34 -12 -43 2 -43 6 0 12 -5 12 -12 0 -22 13 -25 39
-8 33 22 33 35 1 35 -18 0 -25 5 -25 19 0 30 -19 35 -29 9z"/>
<path d="M3694 1273 c-4 -14 -14 -23 -25 -23 -24 0 -24 -12 -1 -26 34 -22 65
20 42 56 -8 13 -11 11 -16 -7z"/>
<path d="M2895 1269 c-4 -6 -5 -12 -2 -15 2 -3 7 2 10 11 7 17 1 20 -8 4z"/>
<path d="M4332 1238 c-18 -23 -43 -79 -40 -89 2 -5 15 15 30 46 27 55 29 66
10 43z"/>
<path d="M3180 1230 c0 -5 -5 -10 -11 -10 -6 0 -16 -6 -23 -13 -11 -11 -8 -13
20 -14 36 -1 49 15 28 35 -8 7 -14 8 -14 2z"/>
<path d="M3760 1220 c-9 -6 -10 -10 -3 -10 6 0 15 5 18 10 8 12 4 12 -15 0z"/>
<path d="M3584 1184 c4 -10 10 -34 13 -52 3 -18 9 -35 14 -38 4 -2 6 6 4 18
-12 61 -17 78 -27 85 -8 4 -9 0 -4 -13z"/>
<path d="M4255 1164 c-4 -16 -8 -35 -11 -41 -2 -7 0 -13 5 -13 9 0 23 71 16
78 -2 2 -7 -9 -10 -24z"/>
<path d="M3965 1140 c-3 -5 -1 -10 4 -10 6 0 11 5 11 10 0 6 -2 10 -4 10 -3 0
-8 -4 -11 -10z"/>
<path d="M4322 1116 c-21 -24 -32 -49 -37 -86 -4 -28 -4 -54 -1 -57 3 -4 6 5
6 18 0 14 7 34 15 45 17 23 19 38 3 28 -14 -9 -5 8 29 54 31 42 23 41 -15 -2z"/>
<path d="M3486 1112 c-3 -5 1 -9 9 -9 8 0 12 4 9 9 -3 4 -7 8 -9 8 -2 0 -6 -4
-9 -8z"/>
<path d="M3671 1104 c0 -11 3 -14 6 -6 3 7 2 16 -1 19 -3 4 -6 -2 -5 -13z"/>
<path d="M4339 1089 c-13 -11 -18 -18 -11 -14 15 8 15 0 2 -26 -6 -10 -7 -19
-3 -19 4 0 18 18 30 40 24 44 17 51 -18 19z"/>
<path d="M4254 1035 c-7 -19 -14 -47 -13 -62 0 -23 3 -19 13 17 7 25 16 53 21
63 4 9 4 17 1 17 -4 0 -14 -16 -22 -35z"/>
<path d="M3851 1024 c0 -11 3 -14 6 -6 3 7 2 16 -1 19 -3 4 -6 -2 -5 -13z"/>
<path d="M4355 993 c-14 -15 -25 -32 -26 -38 0 -5 -3 -21 -5 -35 -4 -23 -3
-23 25 10 31 37 33 52 4 29 -15 -12 -16 -12 -8 1 4 8 17 25 28 38 11 12 18 22
14 22 -3 0 -18 -12 -32 -27z"/>
<path d="M3743 995 c-3 -9 -3 -18 -1 -21 3 -3 8 4 11 16 6 23 -1 27 -10 5z"/>
<path d="M3856 951 c-16 -17 -23 -31 -18 -35 6 -4 13 -2 17 4 3 5 3 10 -1 10
-4 0 3 11 16 25 13 14 21 25 19 25 -3 0 -18 -13 -33 -29z"/>
<path d="M4297 933 c-10 -17 -31 -89 -32 -109 0 -18 2 -20 17 -10 10 6 18 14
18 19 0 4 -4 5 -10 2 -14 -8 -12 12 5 60 13 35 14 59 2 38z"/>
<path d="M4386 914 c-3 -9 -2 -23 4 -32 7 -14 9 -10 10 16 0 35 -5 41 -14 16z"/>
<path d="M4176 884 c-9 -22 -8 -24 9 -24 8 0 15 6 15 14 0 22 -17 28 -24 10z"/>
<path d="M4740 786 c0 -2 11 -24 25 -47 14 -24 25 -38 25 -30 0 7 -9 29 -21
47 -19 31 -29 41 -29 30z"/>
<path d="M5466 755 c-3 -8 -12 -15 -21 -15 -19 0 -19 -7 0 -26 12 -12 18 -12
35 -2 22 14 23 18 14 42 -8 20 -20 20 -28 1z"/>
<path d="M4938 737 c-12 -29 -10 -63 3 -50 6 6 9 23 7 39 -2 24 -4 26 -10 11z"/>
<path d="M4813 727 c4 -10 7 -30 7 -43 0 -13 4 -24 9 -24 10 0 -3 68 -15 78
-4 4 -4 -1 -1 -11z"/>
<path d="M5251 664 c0 -11 3 -14 6 -6 3 7 2 16 -1 19 -3 4 -6 -2 -5 -13z"/>
<path d="M5595 660 c-3 -5 -1 -10 4 -10 6 0 11 5 11 10 0 6 -2 10 -4 10 -3 0
-8 -4 -11 -10z"/>
<path d="M5036 620 c20 -43 24 -47 24 -29 0 8 -10 25 -21 39 l-20 25 17 -35z"/>
<path d="M5400 596 c0 -14 5 -28 10 -31 6 -3 10 5 10 19 0 14 -4 28 -10 31 -6
3 -10 -5 -10 -19z"/>
<path d="M5082 595 c0 -11 4 -31 8 -45 6 -20 8 -21 8 -5 0 11 -4 31 -8 45 -6
20 -8 21 -8 5z"/>
<path d="M5238 550 c-4 -22 -1 -26 21 -28 22 -1 24 0 10 11 -9 6 -18 19 -21
27 -3 10 -6 6 -10 -10z"/>
<path d="M5696 524 c-23 -50 -16 -52 11 -3 12 21 18 39 14 39 -4 0 -15 -16
-25 -36z"/>
<path d="M5309 548 c-7 -25 -5 -36 7 -31 16 6 19 33 4 33 -5 0 -10 -1 -11 -2z"/>
<path d="M5771 501 c-1 -34 2 -42 11 -33 8 8 8 20 1 44 l-11 33 -1 -44z"/>
<path d="M5621 494 c0 -11 3 -14 6 -6 3 7 2 16 -1 19 -3 4 -6 -2 -5 -13z"/>
<path d="M5980 448 c0 -21 2 -38 4 -38 9 0 12 50 5 62 -6 8 -9 -1 -9 -24z"/>
<path d="M5758 413 c7 -3 16 -2 19 1 4 3 -2 6 -13 5 -11 0 -14 -3 -6 -6z"/>
</g>
</svg>
