<svg version="1.1" xmlns="http://www.w3.org/2000/svg" xmlns:xlink="http://www.w3.org/1999/xlink" width="213" height="227" viewBox="0,0,213,227"><defs><linearGradient x1="165.37519" y1="176.39498" x2="220.23028" y2="176.39498" gradientUnits="userSpaceOnUse" id="color-1"><stop offset="0" stop-color="#3644df"/><stop offset="1" stop-color="#3644df" stop-opacity="0"/></linearGradient><linearGradient x1="256.31927" y1="171.85038" x2="314.34837" y2="171.85038" gradientUnits="userSpaceOnUse" id="color-2"><stop offset="0" stop-color="#235791" stop-opacity="0"/><stop offset="1" stop-color="#235791"/></linearGradient></defs><g transform="translate(-138.5,-39)"><g data-paper-data="{&quot;isPaintingLayer&quot;:true}" fill-rule="nonzero" stroke-width="0" stroke-linejoin="miter" stroke-miterlimit="10" stroke-dasharray="" stroke-dashoffset="0" style="mix-blend-mode: normal"><path d="M138.5,266v-227h213v227z" fill="none" stroke="#000000" stroke-linecap="butt"/><path d="M185.98085,214.75636c0,0 -24.75007,-8.57414 -20,-30c4.75008,-21.42587 16.13488,-32.67289 35.66667,-40.66667c9.91142,-3.57251 18.58276,-6.05608 18.58276,-6.05608c0,0 -28.46014,11.42936 -38.26511,23.20305c-9.80497,11.77369 -10.94795,18.59426 -11.29674,32.01967c-0.34879,13.42541 15.31242,21.50003 15.31242,21.50003z" fill="url(#color-1)" stroke="none" stroke-linecap="round"/><path d="M279.64752,144.08968c20.68056,8.2845 31.56858,30.91975 34.66667,45.66667c0.46541,6.37024 -3.97531,16.12654 -3.97531,16.12654c0,0 5.05177,-22.4031 -10.67864,-42.42608c-16.33604,-20.79388 -43.34097,-25.63884 -43.34097,-25.63884c0,0 2.16903,-0.0981 23.32824,6.27171z" fill="url(#color-2)" stroke="none" stroke-linecap="round"/></g></g></svg>